HIERARCHY
ROOT Hip
{
  OFFSET 0.0 0.0 0.0
  CHANNELS 6 Xposition Yposition Zposition Xrotation Yrotation Zrotation
  JOINT LowerSpine
  {
    OFFSET 0.0 0.061367 -0.03653
    CHANNELS 3 Xrotation Yrotation Zrotation
    JOINT MiddleSpine
    {
      OFFSET 0.0 0.056002 0.002633
      CHANNELS 3 Xrotation Yrotation Zrotation
      JOINT Chest
      {
        OFFSET 0.0 0.069296 -0.013882
        CHANNELS 3 Xrotation Yrotation Zrotation
        JOINT Neck
        {
          OFFSET 0.0 0.156156 -0.002923
          CHANNELS 3 Xrotation Yrotation Zrotation
          JOINT Head
          {
            OFFSET 0.0 0.088183 0.023986
            CHANNELS 3 Xrotation Yrotation Zrotation
            End Site
            {
              OFFSET 1e-06 0.123215 0.003678
            }
          }
        }
        JOINT LClavicle
        {
          OFFSET 0.014189 0.150698 0.046467
          CHANNELS 3 Xrotation Yrotation Zrotation
          JOINT LShoulder
          {
            OFFSET 0.082893 0.021616 -0.034976
            CHANNELS 3 Xrotation Yrotation Zrotation
            JOINT LForearm
            {
              OFFSET 0.195645 -0.000695 -0.001695
              CHANNELS 3 Xrotation Yrotation Zrotation
              JOINT LHand
              {
                OFFSET 0.163209 0.000474 -0.000977
                CHANNELS 3 Xrotation Yrotation Zrotation
                End Site
                {
                  OFFSET 0.0 0.006864 0.0
                }
              }
            }
          }
        }
        JOINT RClavicle
        {
          OFFSET -0.014189 0.150698 0.046467
          CHANNELS 3 Xrotation Yrotation Zrotation
          JOINT RShoulder
          {
            OFFSET -0.082908 0.021619 -0.034982
            CHANNELS 3 Xrotation Yrotation Zrotation
            JOINT RForearm
            {
              OFFSET -0.195645 -0.000695 -0.001695
              CHANNELS 3 Xrotation Yrotation Zrotation
              JOINT RHand
              {
                OFFSET -0.163209 0.000474 -0.000977
                CHANNELS 3 Xrotation Yrotation Zrotation
                End Site
                {
                  OFFSET 0.0 0.006864 0.0
                }
              }
            }
          }
        }
      }
    }
  }
  JOINT RThigh
  {
    OFFSET -0.072558 0.02774 -0.005953
    CHANNELS 3 Xrotation Yrotation Zrotation
    JOINT RShin
    {
      OFFSET -0.005253 -0.285537 0.0
      CHANNELS 3 Xrotation Yrotation Zrotation
      JOINT RFoot
      {
        OFFSET 0.0 -0.28038 0.0
        CHANNELS 3 Xrotation Yrotation Zrotation
        JOINT RToe
        {
          OFFSET 0.0 -0.030816 0.064441
          CHANNELS 3 Xrotation Yrotation Zrotation
          End Site
          {
            OFFSET 0.0 0.0 0.043231
          }
        }
      }
    }
  }
  JOINT LThigh
  {
    OFFSET 0.072557 0.027741 -0.005953
    CHANNELS 3 Xrotation Yrotation Zrotation
    JOINT LShin
    {
      OFFSET 0.005253 -0.285539 0.0
      CHANNELS 3 Xrotation Yrotation Zrotation
      JOINT LFoot
      {
        OFFSET 0.0 -0.28038 0.0
        CHANNELS 3 Xrotation Yrotation Zrotation
        JOINT LToe
        {
          OFFSET 0.0 -0.030816 0.064441
          CHANNELS 3 Xrotation Yrotation Zrotation
          End Site
          {
            OFFSET 0.0 0.0 0.043231
          }
        }
      }
    }
  }
}
MOTION
Frames: 9
Frame Time: 0.03333333333333333
0.036751 0.584068 0.007026 -3.71239 5.455389 1.168454 0.405024 -0.20696 0.176055 0.716718 1.565225 0.404061 4.163848 7.460303 0.44036 -0.196991 0.074052 0.018106 -0.01593 -0.061909 -0.01378 -0.355016 -0.174764 -13.329895 18.449015 -25.604866 -54.16634 9.704184 -31.340771 -1.419768 0.027626 0.063472 -0.017667 -0.53842 1.10998 12.961495 5.337363 32.318363 57.070457 -0.359586 37.394535 5.383715 0.002907 -0.111676 0.012399 1.840507 2.696522 -1.710226 6.200144 1.854243 -0.337286 -3.260172 1.035689 0.423533 0.002186 0.157931 0.052343 9.240649 9.123761 0.106968 -1.431327 5.211594 -0.759662 -2.916641 0.101705 0.292083 0.017088 -0.044469 -0.014507 
0.037005 0.5844 0.008338 -3.747502 5.265767 1.199449 0.349147 -0.203902 0.193545 0.725523 1.56964 0.384652 4.192613 7.451736 0.308493 -0.232201 0.066126 0.017241 -0.016229 -0.060519 -0.013609 -0.344485 -0.143651 -13.362787 18.743128 -25.63903 -53.868462 9.870839 -31.573353 -1.401001 0.026917 0.061856 -0.017153 -0.52344 1.105294 12.988487 5.868572 32.491249 56.837688 -0.137645 38.180599 5.524468 -0.000584 -0.109698 0.012243 1.888198 2.699568 -1.853743 6.265133 1.880044 -0.346299 -3.175446 1.06699 0.452294 -0.000237 0.149161 0.050196 9.431194 9.339941 0.123259 -1.389781 5.361259 -0.825323 -2.91193 0.078423 0.283147 0.017015 -0.04349 -0.013968 
0.037177 0.584788 0.00982 -3.742807 5.054016 1.239111 0.291233 -0.198349 0.209359 0.73252 1.56801 0.357772 4.199263 7.40701 0.143019 -0.262657 0.059168 0.015472 -0.01611 -0.059972 -0.01373 -0.328001 -0.113498 -13.414538 19.061224 -25.661129 -53.517414 10.063437 -31.800682 -1.379571 0.026131 0.059844 -0.016319 -0.49981 1.097014 13.025837 6.464315 32.612499 56.592419 0.083665 39.123295 5.687631 -0.005688 -0.106623 0.011924 1.910926 2.63432 -2.016467 6.311838 1.870995 -0.34338 -3.047106 1.102803 0.487917 -0.004161 0.139958 0.0482 9.603155 9.657314 0.141199 -1.307932 5.564441 -0.893783 -2.891477 0.055553 0.275233 0.017007 -0.042368 -0.01371 
0.037317 0.585213 0.011187 -3.760554 4.779752 1.277278 0.23415 -0.187162 0.225973 0.735014 1.559158 0.324894 4.213591 7.355804 -0.033687 -0.289018 0.046389 0.013203 -0.016011 -0.057242 -0.013086 -0.320464 -0.087328 -13.471288 19.357382 -25.698433 -53.174461 10.303145 -32.024158 -1.374077 0.024543 0.056243 -0.01421 -0.479095 1.103704 13.053676 7.111699 32.661057 56.321404 0.280777 40.171082 5.873437 -0.009793 -0.101838 0.01194 1.914504 2.561799 -2.1874 6.383998 1.861555 -0.337483 -2.906099 1.141229 0.52762 -0.007486 0.1287 0.046069 9.768571 10.002349 0.197372 -1.197405 5.799102 -0.961881 -2.862751 0.0293 0.263406 0.016127 -0.039563 -0.013124 
0.037475 0.58563 0.012512 -3.781742 4.490102 1.309468 0.173856 -0.175907 0.242847 0.735763 1.549628 0.292475 4.21571 7.293704 -0.20828 -0.316352 0.033926 0.009064 -0.015868 -0.055208 -0.012432 -0.313405 -0.06449 -13.541321 19.661299 -25.739 -52.838505 10.54298 -32.224228 -1.364298 0.022984 0.052521 -0.012045 -0.459662 1.115496 13.081986 7.815316 32.612015 56.018036 0.412413 41.395573 6.089355 -0.014373 -0.096569 0.011838 1.936845 2.466428 -2.357537 6.444476 1.834237 -0.332614 -2.768886 1.182435 0.567573 -0.011195 0.116977 0.04403 9.917253 10.321479 0.256379 -1.080936 6.018363 -1.025283 -2.832956 0.002506 0.253316 0.015053 -0.036602 -0.012558 
0.037604 0.586027 0.013755 -3.80418 4.159812 1.334504 0.111564 -0.165783 0.258535 0.736721 1.540146 0.26008 4.213149 7.213478 -0.381797 -0.343191 0.021358 0.004202 -0.015535 -0.053506 -0.012043 -0.305285 -0.043022 -13.622635 19.945286 -25.784119 -52.522064 10.759009 -32.359188 -1.353774 0.021633 0.049067 -0.010105 -0.438931 1.126069 13.109518 8.546819 32.484673 55.714417 0.470804 42.79044 6.321476 -0.019398 -0.091725 0.011667 1.960467 2.342937 -2.521358 6.493989 1.784259 -0.3232 -2.636057 1.226475 0.607453 -0.015257 0.105524 0.042073 10.060769 10.612068 0.315026 -0.966644 6.219642 -1.084902 -2.807341 -0.018376 0.247279 0.014248 -0.034126 -0.012085 
0.037744 0.586378 0.014902 -3.820978 3.802274 1.341041 0.048322 -0.156769 0.273279 0.736641 1.530582 0.231282 4.206146 7.117486 -0.539557 -0.368914 0.009476 -0.002929 -0.014981 -0.052727 -0.011949 -0.296701 -0.022836 -13.722167 20.194263 -25.820913 -52.248974 10.936372 -32.406452 -1.34436 0.020793 0.046402 -0.008831 -0.41616 1.130333 13.13192 9.270685 32.256649 55.410561 0.431781 44.360786 6.565949 -0.024831 -0.087488 0.011386 1.994486 2.182462 -2.665067 6.517848 1.704263 -0.310815 -2.508475 1.272323 0.645291 -0.019249 0.095702 0.040592 10.19728 10.845713 0.369273 -0.861505 6.388918 -1.131239 -2.785372 -0.032589 0.247092 0.013795 -0.032576 -0.011907 
0.037953 0.586643 0.015939 -3.799732 3.447236 1.325172 -0.020823 -0.148292 0.285471 0.734885 1.520336 0.201591 4.174644 6.98054 -0.666686 -0.397742 -0.003256 -0.012157 -0.014362 -0.050723 -0.011982 -0.286782 0.004639 -13.840949 20.406702 -25.825155 -52.036762 11.02806 -32.330921 -1.36024 0.020227 0.04382 -0.007575 -0.383356 1.120958 13.147738 9.962101 31.87537 55.098919 0.234766 46.144089 6.847903 -0.027651 -0.084521 0.011263 2.003261 1.97287 -2.783183 6.526769 1.589557 -0.295593 -2.386727 1.315749 0.68068 -0.02172 0.087543 0.039259 10.297285 10.985798 0.41756 -0.760771 6.524684 -1.172914 -2.77064 -0.031943 0.25286 0.012935 -0.030758 -0.011284 
0.03821 0.586818 0.017034 -3.73975 3.119674 1.299681 -0.097062 -0.137914 0.29613 0.733243 1.505874 0.164698 4.112348 6.791703 -0.791587 -0.433721 -0.018248 -0.020395 -0.013842 -0.046388 -0.011682 -0.280541 0.036687 -13.976541 20.60915 -25.812382 -51.849823 11.061745 -32.143593 -1.414791 0.019811 0.040608 -0.005719 -0.3438 1.10914 13.160539 10.673412 31.392502 54.771439 -0.131823 48.173641 7.206954 -0.028755 -0.080596 0.011301 2.006136 1.699758 -2.89601 6.539621 1.450512 -0.285705 -2.270221 1.352946 0.715977 -0.021795 0.078941 0.037106 10.371298 11.045125 0.467063 -0.657511 6.632184 -1.221149 -2.760338 -0.016563 0.261733 0.011373 -0.027807 -0.009792 
